<svg viewBox="0 0 800 800" xmlns="http://www.w3.org/2000/svg"><path d="M737.2349937826045,330.23795144698545 L737.2650187535023,104.18223765556172 M716.6895635244457,318.3760417568207 L716.7058791580871,92.3282498668753 M737.2349937826045,330.23795144698545 L716.6895635244457,318.3760417568207 M737.2650187535023,104.18223765556172 L716.7058791580871,92.3282498668753 M702.832176246066,326.37794168224576 L702.839247021776,100.32480565242264 M716.6895635244457,318.3760417568207 L702.832176246066,326.37794168224576 M716.7058791580871,92.3282498668753 L702.839247021776,100.32480565242264 M697.7006449450416,323.8310102562788 L697.704291915537,97.77957516253935 M702.832176246066,326.37794168224576 L697.7006449450416,323.8310102562788 M702.839247021776,100.32480565242264 L697.704291915537,97.77957516253935 M692.0459364528947,321.7980643723423 L692.0458106682178,95.74798699255211 M697.7006449450416,323.8310102562788 L692.0459364528947,321.7980643723423 M697.704291915537,97.77957516253935 L692.0458106682178,95.74798699255211 M686.0853213458879,320.3571901676109 L686.0812187898011,94.30807510317993 M692.0459364528947,321.7980643723423 L686.0853213458879,320.3571901676109 M692.0458106682178,95.74798699255211 L686.0812187898011,94.30807510317993 M680.047799502406,319.5637300775413 L680.0396689017006,93.51514494756356 M686.0853213458879,320.3571901676109 L680.047799502406,319.5637300775413 M686.0812187898011,94.30807510317993 L680.0396689017006,93.51514494756356 M674.1653208687717,319.4481565704482 L674.1532656528962,93.39964862987432 M680.047799502406,319.5637300775413 L674.1653208687717,319.4481565704482 M680.0396689017006,93.51514494756356 L674.1532656528962,93.39964862987432 M668.6638744892925,320.0149086991369 L668.6481488138309,93.9660222363243 M674.1653208687717,319.4481565704482 L668.6638744892925,320.0149086991369 M674.1532656528962,93.39964862987432 L668.6481488138309,93.9660222363243 M663.7548211823882,321.2422181228061 L663.7358201789236,95.1925119736149 M668.6638744892925,320.0149086991369 L663.7548211823882,321.2422181228061 M668.6481488138309,93.9660222363243 L663.7358201789236,95.1925119736149 M659.6267684730096,323.0829500457519 L659.6050130857014,97.03201454430427 M663.7548211823882,321.2422181228061 L659.6267684730096,323.0829500457519 M663.7358201789236,95.1925119736149 L659.6050130857014,97.03201454430427 M656.4383452783779,325.466400983254 L656.4144622848797,99.41387370854312 M659.6267684730096,323.0829500457519 L656.4383452783779,325.466400983254 M659.6050130857014,97.03201454430427 L656.4144622848797,99.41387370854312 M654.3120913533728,328.30101967978277 L654.2867893103594,102.2465993803599 M656.4383452783779,325.466400983254 L654.3120913533728,328.30101967978277 M656.4144622848797,99.41387370854312 L654.2867893103594,102.2465993803599 M653.3297584567474,331.47791203430035 L653.3038005081729,105.42137020695759 M654.3120913533728,328.30101967978277 L653.3297584567474,331.47791203430035 M654.2867893103594,102.2465993803599 L653.3038005081729,105.42137020695759 M653.5291577945694,334.8750224350346 L653.5033323708544,108.81621210609643 M653.3297584567474,331.47791203430035 L653.5291577945694,334.8750224350346 M653.3038005081729,105.42137020695759 L653.5033323708544,108.81621210609643 M654.902696391049,338.36182071158385 L654.8777869234042,112.30068208428247 M653.5291577945694,334.8750224350346 L654.902696391049,338.36182071158385 M653.5033323708544,108.81621210609643 L654.8777869234042,112.30068208428247 M657.3976637745363,341.8043122948521 L657.3744185908339,115.74087504870761 M654.902696391049,338.36182071158385 L657.3976637745363,341.8043122948521 M654.8777869234042,112.30068208428247 L657.3744185908339,115.74087504870761 M660.9182347241419,345.07019396961203 L660.8973382713496,119.00457611672152 M657.3976637745363,341.8043122948521 L660.9182347241419,345.07019396961203 M657.3744185908339,115.74087504870761 L660.8973382713496,119.00457611672152 M665.3291528610505,348.0339316606723 L665.3111993772184,121.96633501315023 M660.9182347241419,345.07019396961203 L665.3291528610505,348.0339316606723 M660.8973382713496,119.00457611672152 L665.3111993772184,121.96633501315023 M637.6033687632403,364.04408893258176 L637.5669108635125,137.96580400095246 M665.3291528610505,348.0339316606723 L637.6033687632403,364.04408893258176 M665.3111993772184,121.96633501315023 L637.5669108635125,137.96580400095246 M632.4716745348802,361.49602670443437 L632.4317926144895,135.4194427087461 M637.6033687632403,364.04408893258176 L632.4716745348802,361.49602670443437 M637.5669108635125,137.96580400095246 L632.4317926144895,135.4194427087461 M626.8164918459431,359.46217688867586 L626.7728365374519,133.386950607745 M632.4716745348802,361.49602670443437 L626.8164918459431,359.46217688867586 M632.4317926144895,135.4194427087461 L626.7728365374519,133.386950607745 M620.8551075493473,358.02066145689463 L620.807474442059,131.94639749228384 M626.8164918459431,359.46217688867586 L620.8551075493473,358.02066145689463 M626.7728365374519,133.386950607745 L620.807474442059,131.94639749228384 M614.8165491599805,357.22684856760196 L614.7648866244048,131.15311453777156 M620.8551075493473,358.02066145689463 L614.8165491599805,357.22684856760196 M620.807474442059,131.94639749228384 L614.7648866244048,131.15311453777156 M608.9328112959624,357.1112214273594 L608.877222461638,131.03756458847965 M614.8165491599805,357.22684856760196 L608.9328112959624,357.1112214273594 M614.7648866244048,131.15311453777156 L608.877222461638,131.03756458847965 M603.429919844889,357.6782277982872 L603.3706586244393,131.60419243543538 M608.9328112959624,357.1112214273594 L603.429919844889,357.6782277982872 M608.877222461638,131.03756458847965 L603.3706586244393,131.60419243543538 M598.5193007011292,358.90608405015644 L598.4567620635415,132.83122899967464 M603.429919844889,357.6782277982872 L598.5193007011292,358.90608405015644 M603.3706586244393,131.60419243543538 L598.4567620635415,132.83122899967464 M594.3896234035547,360.7476333127644 L594.3243282118651,134.6715489100377 M598.5193007011292,358.90608405015644 L594.3896234035547,360.7476333127644 M598.4567620635415,132.83122899967464 L594.3243282118651,134.6715489100377 M591.1995735236085,363.13214404025223 L591.1321485538668,137.054467863333 M594.3896234035547,360.7476333127644 L591.1995735236085,363.13214404025223 M594.3243282118651,134.6715489100377 L591.1321485538668,137.054467863333 M589.0717552620831,365.9680231557534 L589.0029091540998,139.88845395305594 M591.1995735236085,363.13214404025223 L589.0717552620831,365.9680231557534 M591.1321485538668,137.054467863333 L589.0029091540998,139.88845395305594 M588.0879766078104,369.14633039270115 L588.0184726663532,143.06463965943993 M589.0717552620831,365.9680231557534 L588.0879766078104,369.14633039270115 M589.0029091540998,139.88845395305594 L588.0184726663532,143.06463965943993 M588.2861158607705,372.54494913589537 L588.216742758882,146.46098990137224 M588.0879766078104,369.14633039270115 L588.2861158607705,372.54494913589537 M588.0184726663532,143.06463965943993 L588.216742758882,146.46098990137224 M589.6586169741936,376.0332979134998 L589.5901584428292,149.94701037948025 M588.2861158607705,372.54494913589537 L589.6586169741936,376.0332979134998 M588.216742758882,146.46098990137224 L589.5901584428292,149.94701037948025 M592.1528132675552,379.4773203269398 L592.0860179902368,153.38873417302094 M589.6586169741936,376.0332979134998 L592.1528132675552,379.4773203269398 M589.5901584428292,149.94701037948025 L592.0860179902368,153.38873417302094 M595.672909181967,382.7446543245535 L595.6084620009511,156.65388756294405 M592.1528132675552,379.4773203269398 L595.672909181967,382.7446543245535 M592.0860179902368,153.38873417302094 L595.6084620009511,156.65388756294405 M600.0836666219163,385.70971000063435 L600.0221621949852,159.61696444358483 M595.672909181967,382.7446543245535 L600.0836666219163,385.70971000063435 M595.6084620009511,156.65388756294405 L600.0221621949852,159.61696444358483 M572.3455442946668,401.7269919400767 L572.2655189806632,175.62355809235146 M600.0836666219163,385.70971000063435 L572.3455442946668,401.7269919400767 M600.0221621949852,159.61696444358483 L572.2655189806632,175.62355809235146 M567.2136982004122,399.17779197767834 L567.1302486581701,173.07605906937044 M572.3455442946668,401.7269919400767 L567.2136982004122,399.17779197767834 M572.2655189806632,175.62355809235146 L567.1302486581701,173.07605906937044 M561.5580492331555,397.1430331341817 L561.4708256753559,171.04265794403534 M567.2136982004122,399.17779197767834 L561.5580492331555,397.1430331341817 M567.1302486581701,173.07605906937044 L561.4708256753559,171.04265794403534 M555.595886898356,395.70088110198196 L555.5046845083358,169.60146822545852 M561.5580492331555,397.1430331341817 L555.595886898356,395.70088110198196 M561.4708256753559,171.04265794403534 L555.5046845083358,169.60146822545852 M549.5562838567134,394.9067196709029 L549.4610506488898,168.80783672633237 M555.595886898356,395.70088110198196 L549.5562838567134,394.9067196709029 M555.5046845083358,169.60146822545852 L549.4610506488898,168.80783672633237 M543.6712823329743,394.7910411076181 L543.5721211391439,168.69223535402352 M549.5562838567134,394.9067196709029 L543.6712823329743,394.7910411076181 M549.4610506488898,168.80783672633237 L543.5721211391439,168.69223535402352 M538.1669645228478,395.35829065890215 L538.0641290278618,169.25910638720893 M543.6712823329743,394.7910411076181 L538.1669645228478,395.35829065890215 M543.5721211391439,168.69223535402352 L538.0641290278618,169.25910638720893 M533.2547727986248,396.5866974736043 L533.1486577916512,170.4866935110237 M538.1669645228478,395.35829065890215 L533.2547727986248,396.5866974736043 M538.0641290278618,169.25910638720893 L533.1486577916512,170.4866935110237 M529.1234679305112,398.429065744098 L529.0145941958001,172.32783242889866 M533.2547727986248,396.5866974736043 L529.1234679305112,398.429065744098 M533.1486577916512,170.4866935110237 L529.0145941958001,172.32783242889866 M525.9317902335939,400.8146369685744 L525.820784546701,174.71181187872463 M529.1234679305112,398.429065744098 L525.9317902335939,400.8146369685744 M529.0145941958001,172.32783242889866 L525.820784546701,174.71181187872463 M523.8023986718688,403.65178183715915 L523.6899697504432,177.54706371802757 M525.9317902335939,400.8146369685744 L523.8023986718688,403.65178183715915 M525.820784546701,174.71181187872463 L523.6899697504432,177.54706371802757 M522.8171925274231,406.83149366757465 L522.7041038552256,180.72465402335888 M523.8023986718688,403.65178183715915 L522.8171925274231,406.83149366757465 M523.6899697504432,177.54706371802757 L522.7041038552256,180.72465402335888 M523.0140666637573,410.2316240055522 L522.9011071409508,184.12251585958091 M522.8171925274231,406.83149366757465 L523.0140666637573,410.2316240055522 M522.7041038552256,180.72465402335888 L522.9011071409508,184.12251585958091 M524.3855214526313,413.7215288122526 L524.2734751074833,187.61009236334365 M523.0140666637573,410.2316240055522 L524.3855214526313,413.7215288122526 M522.9011071409508,184.12251585958091 L524.2734751074833,187.61009236334365 M526.8789379402057,417.1670875711701 L526.7685538121397,191.05335249898872 M524.3855214526313,413.7215288122526 L526.8789379402057,417.1670875711701 M524.2734751074833,187.61009236334365 L526.7685538121397,191.05335249898872 M530.3985658316387,420.4358703666462 L530.2905291689212,194.319954689474 M526.8789379402057,417.1670875711701 L530.3985658316387,420.4358703666462 M526.7685538121397,191.05335249898872 L530.2905291689212,194.319954689474 M534.809169778478,423.40224041281283 L534.7040756590077,197.28434594297653 M530.3985658316387,420.4358703666462 L534.809169778478,423.40224041281283 M530.2905291689212,194.319954689474 L534.7040756590077,197.28434594297653 M507.05870098895394,439.4266517738098 L506.93506949473976,213.29806900989922 M534.809169778478,423.40224041281283 L507.05870098895394,439.4266517738098 M534.7040756590077,197.28434594297653 L506.93506949473976,213.29806900989922 M501.9266956167979,436.8763178121369 L501.79963968231107,210.74943598761718 M507.05870098895394,439.4266517738098 L501.9266956167979,436.8763178121369 M506.93506949473976,213.29806900989922 L501.79963968231107,210.74943598761718 M496.2705727311839,434.84065382825224 L496.1397421487674,208.71512972189743 M501.9266956167979,436.8763178121369 L496.2705727311839,434.84065382825224 M501.79963968231107,210.74943598761718 L496.1397421487674,208.71512972189743 M490.3076400402702,433.39786027695425 L490.1728295972099,207.27329848423796 M496.2705727311839,434.84065382825224 L490.3076400402702,433.39786027695425 M496.1397421487674,208.71512972189743 L490.1728295972099,207.27329848423796 M484.2669997990907,432.60334557773706 L484.1281571532513,206.479313716987 M490.3076400402702,433.39786027695425 L484.2669997990907,432.60334557773706 M490.1728295972099,207.27329848423796 L484.1281571532513,206.479313716987 M478.380734073543,432.4876155571046 L478.23796175335235,206.36366088733246 M484.2669997990907,432.60334557773706 L478.380734073543,432.4876155571046 M484.1281571532513,206.479313716987 L478.23796175335235,206.36366088733246 M472.8749736095926,433.0551174386002 L472.72852506135206,206.93078425071923 M478.380734073543,432.4876155571046 L472.8749736095926,433.0551174386002 M478.23796175335235,206.36366088733246 L472.72852506135206,206.93078425071923 M467.96121617671724,434.28407068968625 L467.81148602501537,208.15891781090193 M472.8749736095926,433.0551174386002 L467.96121617671724,434.28407068968625 M472.72852506135206,206.93078425071923 L467.81148602501537,208.15891781090193 M463.82828269855605,436.1272585145538 L463.67579164339753,210.00087628314122 M467.96121617671724,434.28407068968625 L463.82828269855605,436.1272585145538 M467.81148602501537,208.15891781090193 L463.67579164339753,210.00087628314122 M460.63497605198364,438.51389094365084 L460.4803508682436,212.3859169376022 M463.82828269855605,436.1272585145538 L460.63497605198364,438.51389094365084 M463.67579164339753,210.00087628314122 L460.4803508682436,212.3859169376022 M458.5040177866904,441.35229791567235 L458.34796727494995,215.222430880398 M460.63497605198364,438.51389094365084 L458.5040177866904,441.35229791567235 M460.4803508682436,212.3859169376022 L458.34796727494995,215.222430880398 M457.5173674073524,444.5334242654943 L457.36065521477707,218.40143570524873 M458.5040177866904,441.35229791567235 L457.5173674073524,444.5334242654943 M458.34796727494995,215.222430880398 L457.36065521477707,218.40143570524873 M457.7129752816918,447.93506720712196 L457.5563905460343,221.8008101453006 M457.5173674073524,444.5334242654943 L457.7129752816918,447.93506720712196 M457.36065521477707,218.40143570524873 L457.5563905460343,221.8008101453006 M459.0833904654885,451.42652458667624 L458.92771751769254,225.28993922216483 M457.7129752816918,447.93506720712196 L459.0833904654885,451.42652458667624 M457.5563905460343,221.8008101453006 L458.92771751769254,225.28993922216483 M461.57603399309914,454.873616221347 L461.4220222287434,228.73473223387066 M459.0833904654885,451.42652458667624 L461.57603399309914,454.873616221347 M458.92771751769254,225.28993922216483 L461.4220222287434,228.73473223387066 M465.0951853103794,458.14385327649484 L464.94352037367736,232.00278868437687 M461.57603399309914,454.873616221347 L465.0951853103794,458.14385327649484 M461.4220222287434,228.73473223387066 L464.94352037367736,232.00278868437687 M469.50562740457997,461.1115430651945 L469.3569047939307,234.96849968077782 M465.0951853103794,458.14385327649484 L469.50562740457997,461.1115430651945 M464.94352037367736,232.00278868437687 L469.3569047939307,234.96849968077782 M441.7428116976695,477.1430841105488 L441.5755352132919,250.98935243483288 M469.50562740457997,461.1115430651945 L441.7428116976695,477.1430841105488 M469.3569047939307,234.96849968077782 L441.5755352132919,250.98935243483288 M436.6106474137486,474.59161539275203 L436.43994627779875,248.43958465589486 M441.7428116976695,477.1430841105488 L436.6106474137486,474.59161539275203 M441.5755352132919,250.98935243483288 L436.43994627779875,248.43958465589486 M430.95405074774834,472.5550456643821 L430.7795743317736,246.4043726452897 M436.6106474137486,474.59161539275203 L430.95405074774834,472.5550456643821 M436.43994627779875,248.43958465589486 L430.7795743317736,246.4043726452897 M424.99034760522704,471.1116101658358 L424.8118902999941,244.96189946011168 M430.95405074774834,472.5550456643821 L424.99034760522704,471.1116101658358 M430.7795743317736,246.4043726452897 L424.8118902999941,244.96189946011168 M418.94868541579126,470.3167329691365 L418.7661945325629,244.16755220123025 M424.99034760522704,471.1116101658358 L418.94868541579126,470.3167329691365 M424.8118902999941,244.96189946011168 L418.7661945325629,244.16755220123025 M413.06115494614966,470.20095145682626 L412.8747326991387,244.0518478798772 M418.94868541579126,470.3167329691365 L413.06115494614966,470.20095145682626 M418.7661945325629,244.16755220123025 L412.8747326991387,244.0518478798772 M407.5539355124499,470.7687148304992 L407.3638350986017,244.61923272954795 M413.06115494614966,470.20095145682626 L407.5539355124499,470.7687148304992 M412.8747326991387,244.0518478798772 L407.3638350986017,244.61923272954795 M402.63861146376576,471.99821488266025 L402.4452273531641,245.84791309103286 M407.5539355124499,470.7687148304992 L402.63861146376576,471.99821488266025 M407.3638350986017,244.61923272954795 L402.4452273531641,245.84791309103286 M398.5040483351442,473.8422228088758 L398.307901143281,247.6906916649761 M402.63861146376576,471.99821488266025 L398.5040483351442,473.8422228088758 M402.4452273531641,245.84791309103286 L398.307901143281,247.6906916649761 M395.3091116052037,476.22991715085504 L395.11082810608644,250.07679423280666 M398.5040483351442,473.8422228088758 L395.3091116052037,476.22991715085504 M398.307901143281,247.6906916649761 L395.11082810608644,250.07679423280666 M393.17658545287765,479.06958706867056 L392.97687452991966,252.9145711220151 M395.3091116052037,476.22991715085504 L393.17658545287765,479.06958706867056 M395.11082810608644,250.07679423280666 L392.97687452991966,252.9145711220151 M392.18847407182716,482.25213787683936 L391.9880995251752,256.09500039996044 M393.17658545287765,479.06958706867056 L392.18847407182716,482.25213787683936 M392.97687452991966,252.9145711220151 L391.9880995251752,256.09500039996044 M392.3828145374985,485.6552944320622 L392.18256575299205,259.4958884544618 M392.18847407182716,482.25213787683936 L392.3828145374985,485.6552944320622 M391.9880995251752,256.09500039996044 L392.18256575299205,259.4958884544618 M393.7522046346626,489.14829642555185 L393.5528662565083,262.9865621521971 M392.3828145374985,485.6552944320622 L393.7522046346626,489.14829642555185 M392.18256575299205,259.4958884544618 L393.5528662565083,262.9865621521971 M396.2440742675945,492.5969219591326 L396.04639603736416,266.4328890638038 M393.7522046346626,489.14829642555185 L396.2440742675945,492.5969219591326 M393.5528662565083,262.9865621521971 L396.04639603736416,266.4328890638038 M399.76274823818073,495.8686142446537 L399.56741619635983,269.7024007456813 M396.2440742675945,492.5969219591326 L399.76274823818073,495.8686142446537 M396.04639603736416,266.4328890638038 L399.56741619635983,269.7024007456813 M404.17302789908473,498.8376246568155 L403.9806379649575,272.6694323664985 M399.76274823818073,495.8686142446537 L404.17302789908473,498.8376246568155 M399.56741619635983,269.7024007456813 L403.9806379649575,272.6694323664985 M376.3978570327492,514.8763001458635 L376.18689670938267,288.69741957020307 M404.17302789908473,498.8376246568155 L376.3978570327492,514.8763001458635 M403.9806379649575,272.6694323664985 L376.18689670938267,288.69741957020307 M371.26553420373654,512.3236959144197 L371.0511490182338,286.14651627657963 M376.3978570327492,514.8763001458635 L371.26553420373654,512.3236959144197 M376.18689670938267,288.69741957020307 L371.0511490182338,286.14651627657963 M365.60846389564597,510.2862198369295 L365.390302798301,284.11039791605015 M371.26553420373654,512.3236959144197 L365.60846389564597,510.2862198369295 M371.0511490182338,286.14651627657963 L365.390302798301,284.11039791605015 M359.6439902061247,508.84214196260405 L359.42184719071656,282.66728235453604 M365.60846389564597,510.2862198369295 L359.6439902061247,508.84214196260405 M365.390302798301,284.11039791605015 L359.42184719071656,282.66728235453604 M353.6012901733842,508.0469110220149 L353.3751121937102,281.8725813514629 M359.6439902061247,508.84214196260405 L353.6012901733842,508.0469110220149 M359.42184719071656,282.66728235453604 L353.3751121937102,281.8725813514629 M347.71249441641163,507.93107798364167 L347.4823833824348,281.75682550400313 M353.6012901733842,508.0469110220149 L347.71249441641163,507.93107798364167 M353.3751121937102,281.8725813514629 L347.4823833824348,281.75682550400313 M342.20383084328506,508.4990940284862 L341.9700397126033,282.32446302506037 M347.71249441641163,507.93107798364167 L342.20383084328506,508.4990940284862 M347.4823833824348,281.75682550400313 L341.9700397126033,282.32446302506037 M337.2869392708893,509.72914124673764 L337.0498623483415,283.553690553107 M342.20383084328506,508.4990940284862 L337.2869392708893,509.72914124673764 M341.9700397126033,282.32446302506037 L337.0498623483415,283.553690553107 M333.1507454504893,511.5739698217625 L332.91090326678693,285.39728977658143 M337.2869392708893,509.72914124673764 L333.1507454504893,511.5739698217625 M337.0498623483415,283.553690553107 L332.91090326678693,285.39728977658143 M329.9541775024382,513.962726785516 L329.71219683053346,287.7844549671476 M333.1507454504893,511.5739698217625 L329.9541775024382,513.962726785516 M332.91090326678693,285.39728977658143 L329.71219683053346,287.7844549671476 M327.82008227849974,516.8036604922323 L327.57667208453813,290.6234956464391 M329.9541775024382,513.962726785516 L327.82008227849974,516.8036604922323 M329.71219683053346,287.7844549671476 L327.57667208453813,290.6234956464391 M326.8305242789926,519.9876277128509 L326.58644852649866,293.80534133820964 M327.82008227849974,516.8036604922323 L326.8305242789926,519.9876277128509 M327.57667208453813,290.6234956464391 L326.58644852649866,293.80534133820964 M327.02359618877233,523.3922988917914 L326.77964450135033,297.2077440179582 M326.8305242789926,519.9876277128509 L327.02359618877233,523.3922988917914 M326.58644852649866,293.80534133820964 L326.77964450135033,297.2077440179582 M328.3919445648039,526.8868555276192 L328.1489018896886,300.6999723596654 M327.02359618877233,523.3922988917914 L328.3919445648039,526.8868555276192 M326.77964450135033,297.2077440179582 L328.1489018896886,300.6999723596654 M330.8830393673236,530.3370159841776 L330.64165580273857,304.14783419592527 M328.3919445648039,526.8868555276192 L330.8830393673236,530.3370159841776 M328.1489018896886,300.6999723596654 L330.64165580273857,304.14783419592527 M334.4012352177845,533.6101644716376 L334.16219720081295,307.41880208138934 M330.8830393673236,530.3370159841776 L334.4012352177845,533.6101644716376 M330.64165580273857,304.14783419592527 L334.16219720081295,307.41880208138934 M338.8113518640069,536.5804963889748 L338.5752557352032,310.38715520892583 M334.4012352177845,533.6101644716376 L338.8113518640069,536.5804963889748 M334.16219720081295,307.41880208138934 L338.5752557352032,310.38715520892583 M311.0238175888705,552.6263110852901 L310.76913453877023,326.42228162904024 M338.8113518640069,536.5804963889748 L311.0238175888705,552.6263110852901 M338.5752557352032,310.38715520892583 L310.76913453877023,326.42228162904024 M305.8913365819757,550.0725705820016 L305.6332284599127,323.8702420620265 M311.0238175888705,552.6263110852901 L305.8913365819757,550.0725705820016 M310.76913453877023,326.42228162904024 L305.6332284599127,323.8702420620265 M300.2337927704163,548.0341875502182 L299.9719081049724,321.83321674599455 M305.8913365819757,550.0725705820016 L300.2337927704163,548.0341875502182 M305.6332284599127,323.8702420620265 L299.9719081049724,321.83321674599455 M294.2685484386046,546.5894668712007 L294.0026808261018,320.38945837894477 M300.2337927704163,548.0341875502182 L294.2685484386046,546.5894668712007 M299.9719081049724,321.83321674599455 L294.0026808261018,320.38945837894477 M288.22481023702426,545.7938819505295 L287.95490627333305,319.5944033953296 M294.2685484386046,546.5894668712007 L288.22481023702426,545.7938819505295 M294.0026808261018,320.38945837894477 L287.95490627333305,319.5944033953296 M282.33474864943594,545.6779973516898 L282.06090993983236,319.4785959873367 M288.22481023702426,545.7938819505295 L282.33474864943594,545.6779973516898 M287.95490627333305,319.5944033953296 L282.06090993983236,319.4785959873367 M276.8246401967045,546.2462662364123 L276.54711945904376,320.04648634859984 M282.33474864943594,545.6779973516898 L276.8246401967045,546.2462662364123 M282.06090993983236,319.4785959873367 L276.54711945904376,320.04648634859984 M271.90618019194784,547.4768609860945 L271.625371565486,321.27626140879295 M276.8246401967045,546.2462662364123 L271.90618019194784,547.4768609860945 M276.54711945904376,320.04648634859984 L271.625371565486,321.27626140879295 M267.7683546375448,549.3225107578772 L267.484778567945,323.12068183011365 M271.90618019194784,547.4768609860945 L267.7683546375448,549.3225107578772 M271.625371565486,321.27626140879295 L267.484778567945,323.12068183011365 M264.5701543356095,551.7123310529283 L264.2844375945807,325.5089103534134 M267.7683546375448,549.3225107578772 L264.5701543356095,551.7123310529283 M267.484778567945,323.12068183011365 L264.2844375945807,325.5089103534134 M262.4344888543632,554.5545293924032 L262.1473404906827,328.3492156672101 M264.5701543356095,551.7123310529283 L262.4344888543632,554.5545293924032 M264.2844375945807,325.5089103534134 L262.1473404906827,328.3492156672101 M261.4434830463427,557.7399139712555 L261.155667186904,331.5324787192229 M262.4344888543632,554.5545293924032 L261.4434830463427,557.7399139712555 M262.1473404906827,328.3492156672101 L261.155667186904,331.5324787192229 M261.6352852515495,561.1461007852962 L261.347591757804,334.9363970362783 M261.4434830463427,557.7399139712555 L261.6352852515495,561.1461007852962 M261.155667186904,331.5324787192229 L261.347591757804,334.9363970362783 M263.0025908432958,564.6422131015884 L262.71580496567805,338.43018106077795 M261.6352852515495,561.1461007852962 L263.0025908432958,564.6422131015884 M261.347591757804,334.9363970362783 L262.71580496567805,338.43018106077795 M265.4929098786501,568.0939095061032 L265.20778207228915,341.87957884735624 M263.0025908432958,564.6422131015884 L265.4929098786501,568.0939095061032 M262.71580496567805,338.43018106077795 L265.20778207228915,341.87957884735624 M269.0106268346634,571.3685151679331 L268.7278439335656,345.1520039094886 M265.4929098786501,568.0939095061032 L269.0106268346634,571.3685151679331 M265.20778207228915,341.87957884735624 L268.7278439335656,345.1520039094886 M273.42057988409084,574.340169472944 L273.14073865046663,348.1216794268336 M269.0106268346634,571.3685151679331 L273.42057988409084,574.340169472944 M268.7278439335656,345.1520039094886 L273.14073865046663,348.1216794268336 M245.62067394343163,590.3931281443419 L245.3222292398876,364.1639498343652 M273.42057988409084,574.340169472944 L245.62067394343163,590.3931281443419 M273.14073865046663,348.1216794268336 L245.3222292398876,364.1639498343652 M240.48803512640228,587.838250610336 L240.1861651418077,361.6107732345802 M245.62067394343163,590.3931281443419 L240.48803512640228,587.838250610336 M245.3222292398876,364.1639498343652 L240.1861651418077,361.6107732345802 M234.8300179503214,585.7989600185472 L234.52437079108702,359.5728403569283 M240.48803512640228,587.838250610336 L234.8300179503214,585.7989600185472 M240.1861651418077,361.6107732345802 L234.52437079108702,359.5728403569283 M228.86400288103053,584.3535961055431 L228.55437174555124,358.12843875476074 M234.8300179503214,585.7989600185472 L228.86400288103053,584.3535961055431 M234.52437079108702,359.5728403569283 L228.55437174555124,358.12843875476074 M222.81922618494949,583.5576569683874 L222.50555731070642,357.3330295540427 M228.86400288103053,584.3535961055431 L222.81922618494949,583.5576569683874 M228.55437174555124,358.12843875476074 L222.50555731070642,357.3330295540427 M216.92789822311065,583.4417207746469 L216.6102929102555,357.2171705510594 M222.81922618494949,583.5576569683874 L216.92789822311065,583.4417207746469 M222.50555731070642,357.3330295540427 L216.6102929102555,357.2171705510594 M211.41634415003728,584.0102426681045 L211.09505487628707,357.7853139214983 M216.92789822311065,583.4417207746469 L211.41634415003728,584.0102426681045 M216.6102929102555,357.2171705510594 L211.09505487628707,357.7853139214983 M206.49631480352255,585.2413853148829 L206.17173554221154,359.01563687974846 M211.41634415003728,584.0102426681045 L206.49631480352255,585.2413853148829 M211.09505487628707,357.7853139214983 L206.17173554221154,359.01563687974846 M202.35685647198468,587.0878568318602 L202.0295075834593,360.8608790477192 M206.49631480352255,585.2413853148829 L202.35685647198468,587.0878568318602 M206.17173554221154,359.01563687974846 L202.0295075834593,360.8608790477192 M199.15702267935956,589.4787411683639 L198.82753093389738,363.2501716143831 M202.35685647198468,587.0878568318602 L199.15702267935956,589.4787411683639 M202.0295075834593,360.8608790477192 L198.82753093389738,363.2501716143831 M197.0197857539926,592.3222049852059 L196.68886028290206,366.09174240785967 M199.15702267935956,589.4787411683639 L197.0197857539926,592.3222049852059 M198.82753093389738,363.2501716143831 L196.68886028290206,366.09174240785967 M196.0273309462426,595.5090078689186 L195.6957360397771,369.27642376737504 M197.0197857539926,592.3222049852059 L196.0273309462426,595.5090078689186 M196.68886028290206,366.09174240785967 L195.6957360397771,369.27642376737504 M196.2178622970379,598.9167113303428 L195.8863880545792,372.6818587346985 M196.0273309462426,595.5090078689186 L196.2178622970379,598.9167113303428 M195.6957360397771,369.27642376737504 L195.8863880545792,372.6818587346985 M197.58412404023548,602.4143803661497 L197.2535560155893,376.17719948173726 M196.2178622970379,598.9167113303428 L197.58412404023548,602.4143803661497 M195.8863880545792,372.6818587346985 L197.2535560155893,376.17719948173726 M200.07366637065013,605.8676137445132 L199.7447553761047,379.6281342452131 M197.58412404023548,602.4143803661497 L200.07366637065013,605.8676137445132 M197.2535560155893,376.17719948173726 L199.7447553761047,379.6281342452131 M203.5909036570012,609.1436775540097 L203.26433692381192,382.90201745796264 M200.07366637065013,605.8676137445132 L203.5909036570012,609.1436775540097 M199.7447553761047,379.6281342452131 L203.26433692381192,382.90201745796264 M208.0006925267914,612.1166551299788 L207.67706723921088,385.8730162489923 M203.5909036570012,609.1436775540097 L208.0006925267914,612.1166551299788 M203.26433692381192,382.90201745796264 L207.67706723921088,385.8730162489923 M180.18843786401692,628.1767445278683 L179.8461925622031,401.92241741054045 M208.0006925267914,612.1166551299788 L180.18843786401692,628.1767445278683 M207.67706723921088,385.8730162489923 L179.8461925622031,401.92241741054045 M175.05561039765604,625.6207472242485 L174.70993958554845,399.3681210265867 M180.18843786401692,628.1767445278683 L175.05561039765604,625.6207472242485 M179.8461925622031,401.92241741054045 L174.70993958554845,399.3681210265867 M169.39711999632766,623.5805484662029 L169.04767137860165,397.3292799806569 M175.05561039765604,625.6207472242485 L169.39711999632766,623.5805484662029 M174.70993958554845,399.3681210265867 L169.04767137860165,397.3292799806569 M163.4303028863191,622.1345589089046 L163.07686924207678,395.88425272078416 M169.39711999632766,623.5805484662029 L163.4303028863191,622.1345589089046 M169.04767137860165,397.3292799806569 L163.07686924207678,395.88425272078416 M157.38448736945463,621.3382653184821 L157.02701459821924,395.0884890660223 M163.4303028863191,622.1345589089046 L157.38448736945463,621.3382653184821 M163.07686924207678,395.88425272078416 L157.02701459821924,395.0884890660223 M151.4918924887769,621.2222774953515 L151.13048158513777,394.9725784335361 M157.38448736945463,621.3382653184821 L151.4918924887769,621.2222774953515 M157.02701459821924,395.0884890660223 L151.13048158513777,394.9725784335361 M145.97892326331544,621.7910345473754 L145.61382648535306,395.5409569750875 M151.4918924887769,621.2222774953515 L145.97892326331544,621.7910345473754 M151.13048158513777,394.9725784335361 L145.61382648535306,395.5409569750875 M141.05732366489684,623.0227254572418 L140.68893479878778,396.7718281976314 M145.97892326331544,621.7910345473754 L141.05732366489684,623.0227254572418 M145.61382648535306,395.5409569750875 L140.68893479878778,396.7718281976314 M136.91623151218397,624.8700192683384 L136.5450708326888,398.6178926615453 M141.05732366489684,623.0227254572418 L136.91623151218397,624.8700192683384 M140.68893479878778,396.7718281976314 L136.5450708326888,398.6178926615453 M133.7147630910299,627.2619683570821 L133.3414573668062,401.008249982837 M136.91623151218397,624.8700192683384 L133.7147630910299,627.2619683570821 M136.5450708326888,398.6178926615453 L133.3414573668062,401.008249982837 M131.57595353361103,630.1066984966527 L131.20121197839757,403.8510871019214 M133.7147630910299,627.2619683570821 L131.57595353361103,630.1066984966527 M133.3414573668062,401.008249982837 L131.20121197839757,403.8510871019214 M130.58207974744533,633.2949026109565 L130.20666683574973,407.037169707297 M131.57595353361103,630.1066984966527 L130.58207974744533,633.2949026109565 M131.20121197839757,403.8510871019214 L130.20666683574973,407.037169707297 M130.77133909343866,636.7041237322251 L130.3960451417533,410.4441223380287 M130.58207974744533,633.2949026109565 L130.77133909343866,636.7041237322251 M130.20666683574973,407.037169707297 L130.3960451417533,410.4441223380287 M132.13655592321106,640.2033505267798 L131.7621667888842,413.94102084753683 M130.77133909343866,636.7041237322251 L132.13655592321106,640.2033505267798 M130.3960451417533,410.4441223380287 L131.7621667888842,413.94102084753683 M134.62528939509372,643.6581399290035 L134.252556226921,417.39351162661865 M132.13655592321106,640.2033505267798 L134.62528939509372,643.6581399290035 M131.7621667888842,413.94102084753683 L134.252556226921,417.39351162661865 M138.1420462356748,646.9356628603304 L137.7716566833925,420.6688539648022 M134.62528939509372,643.6581399290035 L138.1420462356748,646.9356628603304 M134.252556226921,417.39351162661865 L137.7716566833925,420.6688539648022 M142.55163912677983,649.909982616596 L142.1841907761633,423.641194927456 M138.1420462356748,646.9356628603304 L142.55163912677983,649.909982616596 M137.7716566833925,420.6688539648022 L142.1841907761633,423.641194927456 M114.72702749234605,665.9772075046478 L114.34094256660626,439.69773160989484 M142.55163912677983,649.909982616596 L114.72702749234605,665.9772075046478 M142.1841907761633,423.641194927456 L114.34094256660626,439.69773160989484 M109.59404293906016,663.420071658564 L109.20453229540198,437.14229668040423 M114.72702749234605,665.9772075046478 L109.59404293906016,663.420071658564 M114.34094256660626,439.69773160989484 L109.20453229540198,437.14229668040423 M103.93507945208489,661.3789641274699 L103.54179037211111,435.1025468589977 M109.59404293906016,663.420071658564 L103.93507945208489,661.3789641274699 M109.20453229540198,437.14229668040423 L103.54179037211111,435.1025468589977 M97.96749140062485,659.9323304844748 L97.57021626455042,433.6568755117205 M103.93507945208489,661.3789641274699 L97.96749140062485,659.9323304844748 M103.54179037211111,435.1025468589977 L97.57021626455042,433.6568755117205 M91.92063673755843,659.1356822041301 L91.51932108560902,432.86075716610094 M97.96749140062485,659.9323304844748 L91.92063673755843,659.1356822041301 M97.57021626455042,433.6568755117205 L91.51932108560902,432.86075716610094 M86.02677439431136,659.0196427171386 L85.62151891507534,432.74479486961775 M91.92063673755843,659.1356822041301 L86.02677439431136,659.0196427171386 M91.51932108560902,432.86075716610094 L85.62151891507534,432.74479486961775 M80.51235807925445,659.5886531080363 L80.10341478989966,433.3134267507105 M86.02677439431136,659.0196427171386 L80.51235807925445,659.5886531080363 M85.62151891507534,432.74479486961775 L80.10341478989966,433.3134267507105 M75.58918731803715,660.8208926473078 L75.1769498381214,434.54484660411117 M80.51235807925445,659.5886531080363 L75.58918731803715,660.8208926473078 M80.10341478989966,433.3134267507105 L75.1769498381214,434.54484660411117 M71.44646029920017,662.6690093019379 L71.03144881762836,436.3917339137506 M75.58918731803715,660.8208926473078 L71.44646029920017,662.6690093019379 M75.1769498381214,434.54484660411117 L71.03144881762836,436.3917339137506 M68.24335611064373,665.0620238543424 L67.82619739426508,438.7831567015685 M71.44646029920017,662.6690093019379 L68.24335611064373,665.0620238543424 M71.03144881762836,436.3917339137506 L67.82619739426508,438.7831567015685 M66.10297273212166,667.908021162756 L65.68437607700417,441.62726099294264 M68.24335611064373,665.0620238543424 L66.10297273212166,667.908021162756 M67.82619739426508,438.7831567015685 L65.68437607700417,441.62726099294264 M65.10764757421441,671.0976454696753 L64.68837761822596,444.8147637948474 M66.10297273212166,667.908021162756 L65.10764757421441,671.0976454696753 M65.68437607700417,441.62726099294264 L64.68837761822596,444.8147637948474 M65.29563376264241,674.5083852655996 L64.87648106035238,448.22323510447916 M65.10764757421441,671.0976454696753 L65.29563376264241,674.5083852655996 M64.68837761822596,444.8147637948474 L64.87648106035238,448.22323510447916 M66.65980461200343,678.0091708605471 L66.24155532447497,451.7216924188001 M65.29563376264241,674.5083852655996 L66.65980461200343,678.0091708605471 M64.87648106035238,448.22323510447916 L66.24155532447497,451.7216924188001 M69.14775948642477,681.4654992991749 L68.73116512010205,455.175722238713 M66.65980461200343,678.0091708605471 L69.14775948642477,681.4654992991749 M66.24155532447497,451.7216924188001 L68.73116512010205,455.175722238713 M72.66403510423316,684.7444823273637 L72.24978370677394,458.45252467801686 M69.14775948642477,681.4654992991749 L72.66403510423316,684.7444823273637 M68.73116512010205,455.175722238713 L72.24978370677394,458.45252467801686 M77.07346263391838,687.7201271315479 L76.66215221389399,461.4261906925025 M72.66403510423316,684.7444823273637 L77.07346263391838,687.7201271315479 M72.24978370677394,458.45252467801686 L76.66215221389399,461.4261906925025 M63.15561737105406,695.7569383091319 L62.73498124649774,469.4576577770016 M77.07346263391838,687.7201271315479 L63.15561737105406,695.7569383091319 M76.66215221389399,461.4261906925025 L62.73498124649774,469.4576577770016 M83.70095654864622,707.6717501331246 L83.29402957864119,481.36454775935715 M63.15561737105406,695.7569383091319 L83.70095654864622,707.6717501331246 M62.73498124649774,469.4576577770016 L83.29402957864119,481.36454775935715 M83.70095654864622,707.6717501331246 L737.2349937826045,330.23795144698545 M83.29402957864119,481.36454775935715 L737.2650187535023,104.18223765556172" stroke="black"  stroke-width="4"  fill="red"/></svg>